<svg width="2335" height="1706" viewBox="0 0 2335 1706" fill="none" xmlns="http://www.w3.org/2000/svg">
<path d="M1041.64 9.02799C1122.97 74.1205 1203.69 143.07 1280.66 208.828C1379.27 293.069 1471.73 372.06 1551.47 430.94C1790.03 607.096 2089.84 580.005 2335 505.66V506.085C2089.78 580.43 1789.91 607.505 1551.29 431.298C1471.54 372.407 1379.07 293.416 1280.46 209.17C1203.36 143.293 1122.49 74.2156 1041.01 9.02799H1041.64H1041.64ZM253.307 324.393C230.234 197.583 218.82 93.5435 217.509 9H217.851C219.166 93.5043 230.576 197.516 253.649 324.303L253.307 324.393Z" fill="#F6DC0E" fill-opacity="0.32"/>
<path d="M1021.14 9.02799C1113.47 81.2796 1204.98 160.875 1291.71 236.323C1385.55 317.944 1473.81 394.713 1551.47 452.059C1792.95 630.376 2092.73 592.588 2335 508.234V508.66C2092.67 593.013 1792.84 630.773 1551.29 452.411C1473.6 395.049 1385.35 318.28 1291.51 236.658C1204.64 161.093 1112.98 81.3691 1020.5 9.02799H1021.14ZM232.613 350.583C206.712 208.252 196.107 96.2191 198.537 9H198.879C196.449 96.1743 207.054 208.173 232.954 350.493L232.613 350.583Z" fill="#F6DC0E" fill-opacity="0.32"/>
<path d="M999.9 9.02799C1101.89 86.334 1202.76 175.652 1298.02 260.022C1388.91 340.508 1474.69 416.476 1551.47 473.178C1796 653.734 2095.75 604.728 2335 510.104V510.535C2095.69 605.154 1795.88 654.137 1551.29 473.525C1474.49 416.817 1388.71 340.843 1297.81 260.352C1202.41 175.859 1101.38 86.4012 999.244 9.02799H999.895H999.9ZM211.918 376.773C182.796 216.743 173.835 97.2546 181.71 9H182.056C174.181 97.1986 183.138 216.659 212.26 376.684L211.918 376.773Z" fill="#F6DC0E" fill-opacity="0.32"/>
<path opacity="0.4" d="M976.774 0.0223897C1087.93 80.6701 1197.52 179.448 1300.82 272.572C1389.77 352.761 1474.05 428.74 1550.64 485.286C1798.35 668.204 2098.04 607.259 2334.16 502.072V502.509C2097.99 607.696 1798.24 668.607 1550.45 485.638C1473.85 429.076 1389.57 353.091 1300.61 272.902C1197.17 179.655 1087.41 80.7261 976.1 0.0223897H976.774ZM190.389 393.964C157.47 213.077 151.43 87.0288 167.297 0H167.662C151.776 86.9616 157.807 212.971 190.726 393.874L190.384 393.964H190.389Z" fill="#F6DC0E"/>
<path opacity="0.4" d="M952.985 78.0224C1073.36 160.321 1191.53 268.71 1302.81 370.796C1390.45 451.203 1473.83 527.686 1550.63 584.399C1801.68 769.78 2101.32 696.241 2334.16 580.207V580.654C2101.26 696.689 1801.57 770.183 1550.45 584.757C1473.63 528.027 1390.25 451.539 1302.6 371.132C1191.17 268.9 1072.82 160.355 952.282 78.0224H952.985ZM169.694 498.154C132.07 291.396 131.124 160.545 159.164 78H159.562C131.48 160.45 132.397 291.251 170.036 498.07L169.694 498.16V498.154Z" fill="#F6DC0E"/>
<path opacity="0.4" d="M927.008 78.0224C1057.15 160.047 1184.14 278.539 1303.71 390.129C1390.46 471.096 1473.32 548.424 1550.63 605.513C1805.18 793.48 2104.75 706.557 2334.16 579.378V579.832C2104.68 707.011 1805.07 793.888 1550.45 605.871C1473.12 548.766 1390.26 471.437 1303.49 390.459C1183.76 278.712 1056.59 160.041 926.269 78.0224H927.008ZM148.999 524.35C105.021 282.675 113.425 150.957 161.49 78H161.968C113.8 150.817 105.335 282.446 149.341 524.26L148.999 524.35Z" fill="#F6DC0E"/>
<path opacity="0.4" d="M897.7 78.0224C1038.74 157.232 1175.26 286.784 1303.85 408.841C1390.01 490.62 1472.61 569.023 1550.63 626.632C1808.86 817.319 2108.33 716.157 2334.16 577.525V577.984C2108.27 716.616 1808.76 817.722 1550.45 626.984C1472.41 569.359 1389.8 490.95 1303.64 409.166C1174.85 286.929 1038.12 157.176 896.871 78.0224H897.7ZM128.305 550.54C74.1486 252.931 103.121 132.256 190.585 78H191.385C103.594 132.004 74.4154 252.427 128.647 550.451L128.305 550.54Z" fill="#F6DC0E"/>
<path opacity="0.5" d="M862.758 78.0227C1016.86 150.548 1164.39 292.902 1303.45 427.095C1389.21 509.853 1471.75 589.504 1550.63 647.745C1812.75 841.293 2112.1 724.951 2334.16 574.565V575.04C2112.03 725.421 1812.64 841.707 1550.45 648.104C1471.56 589.846 1389 510.183 1303.23 427.42C1163.94 292.997 1016.15 150.397 861.78 78.0227H862.758ZM107.611 576.731C43.0793 222.112 102.194 134.282 241.68 97.9775C274.702 89.3854 312.232 83.6816 353.696 78.0059H356.763C314.11 83.816 275.563 89.5869 241.75 98.3861C102.494 134.629 43.482 222.363 107.948 576.641L107.606 576.731H107.611Z" fill="#F6DC0E"/>
<path opacity="0.7" d="M815.934 78.0229C987.842 136.287 1149.86 295.158 1302.65 445.001C1388.17 528.873 1470.79 609.907 1550.64 668.865C1816.85 865.441 2116.06 732.849 2334.16 570.401V570.882C2116 733.33 1816.74 865.849 1550.45 669.223C1470.59 610.249 1387.95 529.209 1302.43 445.326C1149.32 295.164 986.953 135.939 814.675 78.0229H815.934ZM86.9124 602.922C24.6795 260.913 83.0544 182.678 221.711 146.591C255.276 137.854 293.552 131.59 335.961 124.649C399.758 114.21 472.909 102.237 553.467 78.0117H554.895C473.794 102.512 400.17 114.563 336.008 125.064C293.612 132.004 255.347 138.262 221.781 147C83.3541 183.031 25.0821 261.171 87.2541 602.838L86.9124 602.927V602.922Z" fill="#F6DC0E"/>
<path opacity="0.7" d="M66.2224 629.117C6.48968 300.861 63.4038 231.129 199.916 195.596C228.767 188.084 261.175 182.106 296.787 175.535C372.616 161.547 462.983 144.872 564.497 105.041C835.828 -1.42201 1077.53 239.424 1301.53 462.633C1386.92 547.713 1469.74 630.236 1550.63 689.972C1821.19 889.755 2120.24 739.716 2334.16 564.892V565.39C2120.17 740.209 1821.08 890.158 1550.45 690.319C1469.53 630.566 1386.71 548.038 1301.31 462.946C1077.38 239.816 835.753 -0.951828 564.605 105.438C463.058 145.281 372.677 161.956 296.838 175.949C261.232 182.521 228.828 188.499 199.987 196.005C63.7082 231.476 6.89233 301.119 66.5595 629.027L66.2177 629.117H66.2224Z" fill="#F6DC0E"/>
<path opacity="0.7" d="M45.524 655.307C-11.4417 342.237 43.1221 279.613 175.786 245.082C200.994 238.522 229.03 232.975 259.664 226.913C341.748 210.675 442.467 190.748 557.381 137.696C835.191 9.43636 1075.51 252.661 1300.18 480.057C1385.53 566.436 1468.62 650.526 1550.63 711.091C1825.78 914.266 2124.66 745.492 2334.16 558.012V558.527C2124.59 746.002 1825.67 914.669 1550.45 711.443C1468.41 650.862 1385.31 566.761 1299.96 480.376C1075.36 253.064 835.126 9.91774 557.508 138.088C442.561 191.157 341.823 211.084 259.72 227.327C229.1 233.384 201.073 238.931 175.861 245.491C43.4265 279.96 -11.039 342.506 45.8658 655.217L45.524 655.307Z" fill="#F6DC0E"/>
<path opacity="0.7" d="M24.8294 681.498C-29.0836 385.226 22.1326 328.082 148.991 295.063C171.689 289.158 196.822 284.019 224.207 278.422C311.708 260.538 422.241 237.952 550.274 170.358C834.489 20.302 1073.35 265.777 1298.64 497.309C1384.01 585.043 1467.44 670.779 1550.64 732.211C1830.71 939.019 2129.35 749.915 2334.16 549.483V550.014C2129.27 750.447 1830.6 939.427 1550.45 732.563C1467.23 671.115 1383.8 585.368 1298.42 497.622C1073.2 266.18 834.428 20.7889 550.414 170.738C422.344 238.355 311.788 260.947 224.268 278.836C196.892 284.428 171.769 289.566 149.07 295.471C22.4416 328.429 -28.6763 385.495 25.1712 681.408L24.8294 681.498Z" fill="#F6DC0E"/>
<path opacity="0.7" d="M0.0271429 429.568C28.5919 362.863 94.4393 349.39 190.12 329.799C282.304 310.925 402.205 286.38 543.16 203.018C833.724 31.1768 1071.08 278.784 1296.94 514.408C1382.4 603.558 1466.21 690.99 1550.63 753.323C1835.94 964.005 2134.33 752.892 2334.16 539.266V539.82C2134.25 753.446 1835.83 964.413 1550.45 753.681C1466 691.326 1382.18 603.883 1296.72 514.727C1070.94 279.182 833.672 31.6693 543.315 203.387C402.312 286.772 282.383 311.328 190.176 330.208C94.2473 349.849 28.3672 363.356 0.0271429 430.671V429.562V429.568ZM4.13792 707.693C2.67714 699.666 1.32405 691.88 0.0224609 684.228V682.141C1.41769 690.43 2.88783 698.882 4.47502 707.609L4.13324 707.698L4.13792 707.693Z" fill="#F6DC0E"/>
<path opacity="0.7" d="M0.0273438 440.635C32.3143 405.774 85.7497 395.094 157.183 380.843C253.416 361.649 382.306 335.941 536.053 235.674C832.914 42.0701 1068.72 291.698 1295.12 531.391C1380.71 621.991 1464.95 711.175 1550.63 774.443C1841.56 989.272 2139.66 754.18 2334.16 527.171V527.742C2139.57 754.757 1841.45 989.675 1550.45 774.795C1464.74 711.511 1380.49 622.316 1294.89 531.699C1068.58 292.107 832.867 42.5683 536.217 236.038C382.419 336.344 253.491 362.053 157.239 381.252C85.6935 395.525 32.2253 406.211 0.0273438 441.278V440.629V440.635Z" fill="#F6DC0E"/>
<path opacity="0.7" d="M0.0224609 467.912C15.6415 458.34 34.4257 451.578 56.2015 445.908C76.615 440.596 99.6784 436.236 125.219 431.411C224.931 412.576 362.483 386.587 528.941 268.33C832.062 52.9745 1066.28 304.54 1293.2 548.263C1378.95 640.357 1463.65 731.332 1550.63 795.551C1847.65 1014.88 2145.38 753.408 2334.16 512.848V513.447C2145.29 754.013 1847.54 1015.28 1550.45 795.904C1463.45 731.657 1378.73 640.671 1292.98 548.571C1066.15 304.948 832.024 53.4895 529.128 268.688C362.618 386.984 225.024 412.979 125.279 431.825C99.758 436.644 76.7133 440.999 56.2858 446.317C34.4678 451.998 15.6556 458.771 0.0318249 468.393V467.906L0.0224609 467.912Z" fill="#F6DC0E"/>
<path opacity="0.7" d="M0.0224609 502.749C7.48086 499.973 15.4683 497.544 23.9802 495.327C44.4123 490.01 67.8456 485.946 94.0975 481.39C196.787 463.573 342.715 438.256 521.829 300.985C831.168 63.9112 1063.79 317.318 1291.2 565.049C1377.13 658.666 1462.33 751.471 1550.62 816.67C1854.24 1040.87 2151.56 750.312 2334.16 496.178V496.805C2151.46 750.945 1854.13 1041.26 1550.44 817.017C1462.11 751.796 1376.91 658.979 1290.96 565.351C1063.66 317.732 831.135 64.4374 522.021 301.337C342.842 438.659 196.872 463.982 94.149 481.804C67.9018 486.354 44.4825 490.418 24.0551 495.736C15.5151 497.958 7.50426 500.404 0.0224609 503.192V502.749Z" fill="#F6DC0E"/>
<path opacity="0.7" d="M0.0224609 541.938C18.6755 537.605 39.9504 534.342 63.7114 530.692C168.92 514.549 322.962 490.912 514.727 333.646C830.25 74.8829 1061.25 330.047 1289.13 581.758C1375.27 676.92 1460.98 771.589 1550.62 837.784C1861.44 1067.3 2158.27 744.408 2334.16 476.84V477.506C2158.16 745.096 1861.32 1067.69 1550.44 838.137C1460.77 771.919 1375.05 677.239 1288.89 582.06C1061.12 330.461 830.217 75.4091 514.923 333.988C323.093 491.315 169 514.958 63.7536 531.101C39.9738 534.751 18.6848 538.014 0.0224609 542.357V541.932V541.938Z" fill="#F6DC0E"/>
<path opacity="0.7" d="M0.0224609 583.839C10.6459 582.255 21.9669 580.794 33.9715 579.249C141.273 565.407 303.199 544.511 507.624 366.306C829.304 85.8751 1058.68 342.73 1287 598.398C1373.38 695.133 1459.62 791.694 1550.63 858.902C1869.35 1094.25 2165.62 735.109 2334.16 454.471V455.176C2165.49 735.854 1869.22 1094.64 1550.45 859.255C1459.4 792.024 1373.15 695.446 1286.76 598.7C1058.54 343.15 829.271 86.4124 507.825 366.636C303.326 544.909 141.348 565.81 34.0043 579.658C21.9856 581.208 10.6506 582.669 0.0224609 584.259V583.839Z" fill="#F6DC0E"/>
<path opacity="0.7" d="M0.0224609 627.477L4.79808 626.996C113.809 616.047 283.404 599.014 500.512 398.957C828.321 96.8972 1056.07 355.369 1284.81 614.973C1371.44 713.297 1458.23 811.784 1550.63 880.016C1878.11 1121.84 2173.73 721.609 2334.16 428.645V429.395C2173.59 722.426 1877.98 1122.23 1550.45 880.369C1458.01 812.108 1371.22 713.61 1284.57 615.275C1055.94 355.795 828.298 97.4457 500.727 399.287C283.535 599.423 113.874 616.461 4.82617 627.41L0.0224609 627.891V627.472V627.477Z" fill="#F6DC0E"/>
<path opacity="0.7" d="M0.0224609 672.216C111.271 663.742 279.471 638.985 493.41 431.617C827.324 107.957 1053.44 367.98 1282.59 631.495C1369.48 731.426 1456.82 831.861 1550.63 901.129C1887.95 1150.21 2182.81 702.801 2334.17 398.833V399.644C2182.65 703.719 1887.8 1150.59 1550.45 901.487C1456.61 832.191 1369.26 731.745 1282.35 631.797C1053.31 368.411 827.305 108.511 493.63 431.941C279.588 639.404 111.313 664.156 0.0224609 672.631V672.216Z" fill="#F6DC0E"/>
<path opacity="0.7" d="M0.0195312 717.607C113.089 709.888 278.265 675.503 486.299 464.268C826.295 119.041 1050.78 380.553 1280.32 647.964C1367.49 749.518 1455.39 851.923 1550.63 922.243C1899.22 1179.65 2193.15 676.976 2334.16 364.281V365.154C2192.97 678.011 1899.06 1180.02 1550.44 922.602C1455.18 852.259 1367.26 749.837 1280.08 648.266C1050.65 380.989 826.281 119.612 486.524 464.592C278.396 675.923 113.141 710.308 0.0195312 718.027V717.613V717.607Z" fill="#F6DC0E"/>
<path opacity="0.7" d="M0.0195312 763.332C114.41 755.02 276.678 711.562 479.197 496.928C825.256 130.168 1048.1 393.113 1278.03 664.392C1365.48 767.581 1453.96 871.978 1550.63 943.362C1912.31 1210.43 2205.17 641.728 2334.17 324.259V325.211C2204.96 642.943 1912.11 1210.77 1550.45 943.715C1453.75 872.309 1365.25 767.894 1277.78 664.689C1047.98 393.544 825.247 130.739 479.426 497.236C276.809 711.976 114.461 755.44 0.0195312 763.747V763.327V763.332Z" fill="#F6DC0E"/>
<path opacity="0.7" d="M0.0195312 809.153C115.318 799.195 274.777 747.15 472.09 529.584C824.193 141.329 1045.42 405.64 1275.7 680.781C1363.45 785.621 1452.51 892.028 1550.63 964.481C1928.04 1243.17 2219.65 592.672 2334.17 277.537V278.578C2219.38 594.15 1927.81 1243.48 1550.45 964.834C1452.3 892.358 1363.22 785.929 1275.46 681.078C1045.3 406.082 824.189 141.906 472.328 529.897C274.917 747.564 115.374 799.62 0.0195312 809.572V809.153Z" fill="#F6DC0E"/>
<path opacity="0.7" d="M0.0195312 854.867C115.889 842.447 272.604 782.336 464.987 562.245C823.116 152.525 1042.72 418.156 1273.36 697.132C1361.4 803.629 1451.05 912.073 1550.63 985.595C1947.92 1278.96 2238.11 521.429 2334.17 222.543V223.69C2237.75 523.354 1947.62 1279.24 1550.44 985.948C1450.83 912.398 1361.16 803.936 1273.11 697.423C1042.59 418.598 823.107 153.107 465.221 562.547C272.745 782.745 115.945 842.867 0.0195312 855.287V854.867Z" fill="#F6DC0E"/>
<path opacity="0.7" d="M0.0195312 900.351C116.17 884.823 270.217 817.095 457.88 594.894C822.021 163.741 1040.02 430.643 1270.99 713.436C1359.34 821.601 1449.58 932.094 1550.63 1006.7C1976.19 1320.95 2265.02 405.169 2334.17 156.699V158.015C2264.41 408.275 1975.68 1321.06 1550.44 1007.05C1449.36 932.413 1359.1 821.903 1270.74 713.721C1039.89 431.085 822.016 164.329 458.123 595.185C270.362 817.503 116.231 885.255 0.0195312 900.776V900.356V900.351Z" fill="#F6DC0E"/>
<path opacity="0.7" d="M0.0126953 945.507C116.201 926.386 267.63 851.464 450.77 627.551C820.909 175.004 1037.3 443.121 1268.6 729.72C1357.26 839.564 1448.1 952.117 1550.62 1027.82C2040.55 1389.6 2331 88.7201 2331.85 84.9922L2332.19 85.0985C2331.33 88.832 2040.77 1390.24 1550.45 1028.18C1447.88 952.442 1357.02 839.867 1268.36 730.006C1037.18 443.569 820.914 175.603 451.023 627.842C267.784 851.879 116.271 926.817 0.0126953 945.932V945.507Z" fill="#F6DC0E"/>
<path opacity="0.7" d="M0.0126953 990.195C116.037 967.117 264.868 885.489 443.663 660.204C755.764 266.957 956.803 385.46 1148.55 603.122C1187.87 647.756 1226.79 696.554 1266.21 745.962C1355.16 857.485 1446.61 972.126 1550.62 1048.93C2025.07 1399.28 2295.26 160.158 2312.58 78.0664H2312.94C2295.78 159.442 2025.45 1400.04 1550.44 1049.29C1446.39 972.457 1354.93 857.799 1265.95 746.253C1226.55 696.845 1187.62 648.052 1148.31 603.424C956.7 385.919 755.811 267.506 443.916 660.49C265.022 885.898 116.102 967.548 0.0126953 990.626V990.195Z" fill="#F6DC0E"/>
<path opacity="0.7" d="M0.0126953 1034.41C115.681 1007.09 261.969 919.158 436.56 692.865C743.202 295.414 941.091 391.119 1127.18 596.466C1172.96 646.978 1218.01 704.122 1263.8 762.189C1353.07 875.409 1445.11 992.143 1550.62 1070.05C2010.47 1409.61 2262.28 227.68 2292.09 78.0664H2292.44C2262.73 227.283 2010.79 1410.34 1550.44 1070.41C1444.89 992.467 1352.83 875.711 1263.54 762.475C1217.76 704.413 1172.71 647.274 1126.95 596.774C940.997 391.584 743.254 295.957 436.818 693.145C262.129 919.567 115.751 1007.53 0.0126953 1034.84V1034.41Z" fill="#F6DC0E"/>
<path opacity="0.7" d="M0.0126953 1078.07C115.171 1046.34 258.94 952.504 429.458 725.522C732.677 321.892 928.206 399.467 1110.02 594.817C1160.86 649.442 1210.63 713.286 1261.38 778.384C1350.96 893.3 1443.61 1012.15 1550.62 1091.17C2001.01 1423.74 2236.34 269.595 2271.93 78.0625H2272.28C2236.74 269.405 2001.29 1424.43 1550.44 1091.52C1443.38 1012.47 1350.72 893.602 1261.12 778.664C1210.37 713.572 1160.61 649.739 1109.78 595.125C928.117 399.926 732.738 322.429 429.711 725.797C259.099 952.912 115.241 1046.78 0.0126953 1078.51V1078.07Z" fill="#F6DC0E"/>
<path opacity="0.7" d="M0.0126953 1121.13C114.52 1084.88 255.789 985.54 422.351 758.178C723.51 347.092 917.227 409.492 1095.66 596.457C1150.65 654.066 1204.17 723.502 1258.94 794.55C1348.83 911.172 1442.09 1032.14 1550.62 1112.28C1993.51 1439.32 2213.48 302.357 2252.09 78.0625H2252.45C2213.85 302.245 1993.78 1440.01 1550.44 1112.63C1441.87 1032.46 1348.6 911.469 1258.68 794.83C1203.91 723.787 1150.39 654.357 1095.43 596.765C917.142 409.956 723.571 347.618 422.604 758.446C255.953 985.943 114.59 1085.32 0.0126953 1121.57V1121.13Z" fill="#F6DC0E"/>
<path opacity="0.7" d="M0.00976562 1163.58C113.735 1122.73 252.537 1018.27 415.245 790.827C715.309 371.373 907.649 420.664 1083.35 600.437C1141.79 660.24 1198.39 734.473 1256.5 810.693C1346.71 929.022 1440.57 1052.13 1550.62 1133.4C1987.18 1455.76 2192.6 330.036 2232.58 78.0625H2232.94C2192.97 329.952 1987.44 1456.45 1550.44 1133.75C1440.35 1052.46 1346.47 929.325 1256.24 810.978C1198.14 734.764 1141.55 660.536 1083.12 600.756C907.574 421.14 715.388 371.911 415.512 791.102C252.706 1018.68 113.815 1123.18 0.00976562 1164.02V1163.58Z" fill="#F6DC0E"/>
<path opacity="0.7" d="M0.00976562 1205.41C112.845 1159.97 249.203 1050.73 408.143 823.483C707.855 394.983 899.137 432.659 1072.58 606.168C1133.97 667.583 1193.12 746.02 1254.05 826.819C1344.58 946.861 1439.05 1072.13 1550.63 1154.51C1981.78 1472.89 2173.27 353.932 2213.36 78.0625H2213.72C2173.63 353.898 1982.04 1473.57 1550.44 1154.87C1438.81 1072.45 1344.33 947.158 1253.79 827.099C1192.87 746.311 1133.73 667.891 1072.36 606.493C899.067 433.135 707.939 395.515 408.41 823.757C249.367 1051.14 112.925 1160.42 0.00976562 1205.86V1205.41Z" fill="#F6DC0E"/>
<path opacity="0.7" d="M0.00976562 1246.5C111.858 1196.5 245.758 1082.95 401.04 856.144C700.972 418.056 891.468 445.259 1063.03 613.26C1126.96 675.862 1188.25 758.015 1251.6 842.923C1342.45 964.684 1437.51 1092.11 1550.63 1175.63C1976.91 1490.4 2155.04 375.773 2194.44 78.0625H2194.79C2155.39 375.773 1977.16 1491.08 1550.44 1175.99C1437.28 1092.43 1342.19 964.98 1251.33 843.197C1188 758.301 1126.71 676.159 1062.81 613.579C891.403 445.735 701.061 418.582 401.307 856.407C245.931 1083.35 111.937 1196.96 0.00976562 1246.96V1246.5V1246.5Z" fill="#F6DC0E"/>
<path opacity="0.7" d="M0.00976562 1286.98C110.776 1232.49 242.255 1114.88 393.938 888.794C694.563 440.686 884.487 458.312 1054.46 621.41C1120.59 684.868 1183.7 770.358 1249.14 858.993C1340.3 982.472 1435.97 1112.08 1550.63 1196.74C1972.46 1508.24 2137.73 395.951 2175.78 78.0625H2176.13C2138.08 395.968 1972.72 1508.92 1550.44 1197.1C1435.74 1112.41 1340.05 982.78 1248.87 859.278C1183.45 770.654 1120.35 685.182 1054.24 621.74C884.422 458.794 694.652 441.218 394.204 889.057C242.424 1115.3 110.856 1232.95 0.00976562 1287.45V1286.99V1286.98Z" fill="#F6DC0E"/>
<path opacity="0.7" d="M0.00976562 1326.78C109.615 1267.89 238.678 1146.6 386.83 921.455C688.528 462.969 878.059 471.729 1046.69 630.439C1114.76 694.501 1179.42 783.002 1246.67 875.063C1338.14 1000.27 1434.42 1132.06 1550.62 1217.87C1968.5 1526.43 2121.25 414.496 2157.37 78.0625H2157.72C2121.6 414.535 1968.76 1527.11 1550.44 1218.21C1434.19 1132.38 1337.9 1000.56 1246.41 875.332C1179.17 783.288 1114.52 694.804 1046.48 630.764C878.008 472.205 688.631 463.484 387.107 921.707C238.847 1147.01 109.69 1268.36 0.00976562 1327.25V1326.78Z" fill="#F6DC0E"/>
<path opacity="0.7" d="M0.00488281 1365.83C108.379 1302.68 235.022 1178.1 379.723 954.11C682.816 484.939 872.113 485.421 1039.6 640.173C1109.37 704.644 1175.35 795.893 1244.2 891.105C1335.98 1018.04 1432.87 1152.03 1550.62 1238.98C1964.77 1544.79 2105.42 432.217 2139.21 78.0625H2139.56C2105.77 432.279 1965.03 1545.47 1550.44 1239.33C1432.64 1152.35 1335.74 1018.33 1243.94 891.38C1175.1 796.179 1109.13 704.952 1039.39 640.503C872.061 485.896 682.919 485.46 379.999 954.362C235.195 1178.52 108.458 1303.15 0.00488281 1366.3V1365.83Z" fill="#F6DC0E"/>
<path opacity="0.7" d="M0.00488281 1404.22C107.072 1336.95 231.309 1209.39 372.62 986.765C677.375 506.646 866.565 499.325 1033.07 650.494C1104.35 715.212 1171.47 808.98 1241.73 907.131C1333.83 1035.8 1431.31 1172 1550.62 1260.1C1961.39 1563.41 2090.21 448.814 2121.27 78.0625H2121.62C2090.55 448.892 1961.65 1564.09 1550.44 1260.45C1431.09 1172.31 1333.58 1036.09 1241.46 907.399C1171.23 809.265 1104.12 715.514 1032.86 650.825C866.518 499.801 677.487 507.167 372.901 987.017C231.487 1209.8 107.152 1337.43 0.00488281 1404.7V1404.22V1404.22Z" fill="#F6DC0E"/>
<path opacity="0.7" d="M0.00488281 1442C105.701 1370.77 227.554 1240.45 365.518 1019.42C672.169 528.124 861.358 513.402 1027.03 661.303C1099.66 726.144 1167.76 822.24 1239.25 923.128C1331.66 1053.53 1429.76 1191.95 1550.62 1281.2C1958.2 1582.17 2075.52 464.8 2103.56 78.0625H2103.9C2075.85 464.889 1958.46 1582.86 1550.43 1281.56C1429.52 1192.28 1331.41 1053.83 1238.98 923.408C1167.5 822.537 1099.41 726.457 1026.82 661.644C861.311 513.889 672.276 528.644 365.794 1019.67C227.732 1240.86 105.785 1371.24 0.00488281 1442.49V1442V1442Z" fill="#F6DC0E"/>
<path opacity="0.7" d="M0 1479.09C104.268 1404.08 223.738 1271.33 358.41 1052.07C667.159 549.399 856.442 527.625 1021.4 672.537C1095.23 737.4 1164.17 835.651 1236.77 939.12C1329.5 1071.26 1428.19 1211.91 1550.62 1302.32C1955.21 1601.08 2061.28 480.181 2086.05 78.0566H2086.4C2061.63 480.276 1955.48 1601.76 1550.44 1302.67C1427.95 1212.23 1329.25 1071.55 1236.51 939.388C1163.92 835.937 1094.99 737.702 1021.19 672.873C856.4 528.106 667.271 549.92 358.691 1052.32C223.92 1271.74 104.357 1404.55 0 1479.58V1479.09Z" fill="#F6DC0E"/>
<path opacity="0.7" d="M0 1515.42C102.793 1436.81 219.87 1302.04 351.303 1084.73C662.318 570.507 851.783 541.96 1016.13 684.129C1091.03 748.925 1160.7 849.197 1234.29 955.1C1327.32 1088.98 1426.6 1231.87 1550.61 1323.44C1952.46 1620.16 2047.49 494.897 2068.73 78.0566H2069.08C2047.82 495.003 1952.72 1620.85 1550.44 1323.79C1426.38 1232.19 1327.07 1089.27 1234.03 955.363C1160.46 849.483 1090.8 749.238 1015.93 684.465C851.755 542.441 662.449 571.016 351.593 1084.97C220.053 1302.45 102.877 1437.3 0 1515.92V1515.42Z" fill="#F6DC0E"/>
<path opacity="0.7" d="M0 1551.12C101.267 1469.12 215.956 1332.57 344.2 1117.38C657.64 591.447 847.354 556.385 1011.17 696.024C1087.04 760.696 1157.34 862.849 1231.81 971.053C1325.15 1106.68 1425.04 1251.82 1550.62 1344.55C1949.81 1639.32 2034.06 509.31 2051.61 78.0566H2051.96C2034.4 509.422 1950.08 1640.01 1550.44 1344.91C1424.81 1252.14 1324.9 1106.97 1231.54 971.322C1157.09 863.135 1086.8 761.004 1010.97 696.365C847.326 556.872 657.767 591.962 344.491 1117.62C216.139 1332.98 101.356 1469.61 0 1551.62V1551.12Z" fill="#F6DC0E"/>
<path opacity="0.7" d="M0 1586.23C99.6887 1501.06 212.014 1362.92 337.098 1150.04C653.094 612.253 843.117 570.888 1006.49 708.187C1083.23 772.68 1154.07 876.602 1229.32 987C1322.97 1124.37 1423.45 1271.77 1550.61 1365.67C1947.33 1658.61 2020.98 523.242 2034.66 78.0566H2035C2021.32 523.365 1947.6 1659.3 1550.44 1366.02C1423.22 1272.08 1322.72 1124.66 1229.06 987.258C1153.82 876.882 1082.99 772.983 1006.29 708.517C843.089 571.363 653.22 612.756 337.388 1150.27C212.197 1363.33 99.773 1501.55 0 1586.75V1586.23Z" fill="#F6DC0E"/>
<path opacity="0.7" d="M0 1620.57C98.0734 1532.44 208.011 1393.13 329.995 1182.69C648.67 632.924 839.058 585.452 1002.04 720.58C1079.57 784.855 1150.88 890.445 1226.84 1002.94C1320.79 1142.05 1421.87 1291.72 1550.61 1386.79C1945.01 1678.01 2008.23 536.771 2017.87 78.0566H2018.21C2008.56 536.9 1945.28 1678.7 1550.43 1387.14C1421.64 1292.03 1320.54 1142.33 1226.58 1003.19C1150.62 890.73 1079.33 785.157 1001.85 720.921C839.03 585.939 648.796 633.433 330.281 1182.93C208.198 1393.55 98.1624 1532.93 0 1621.09V1620.57Z" fill="#F6DC0E"/>
<path opacity="0.7" d="M0 1654.39C96.416 1563.51 203.989 1423.17 322.893 1215.34C644.348 653.472 835.153 600.056 997.814 733.163C1076.05 797.18 1147.75 904.354 1224.36 1018.84C1318.61 1159.71 1420.28 1311.65 1550.62 1407.9C1942.77 1697.48 1995.76 550.076 2001.25 78.0566H2001.59C1996.1 550.216 1943.05 1698.16 1550.44 1408.25C1420.05 1311.97 1318.36 1159.99 1224.09 1019.11C1147.51 904.645 1075.82 797.494 997.622 733.51C835.129 600.543 644.479 653.981 323.183 1215.58C204.172 1423.59 96.505 1564.01 0 1654.92V1654.39Z" fill="#F6DC0E"/>
<path opacity="0.7" d="M0 1687.48C94.7258 1594.07 199.921 1453.09 315.79 1248C640.12 673.919 831.384 614.71 993.778 745.93C1072.66 809.668 1144.7 918.337 1221.88 1034.75C1316.44 1177.36 1418.69 1331.59 1550.62 1429.01C1940.63 1717.01 1983.56 563.141 1984.78 78.0566H1985.13C1983.9 563.286 1940.91 1717.7 1550.43 1429.37C1418.45 1331.91 1316.17 1177.65 1221.61 1035.01C1144.44 918.628 1072.42 809.982 993.582 746.277C831.365 615.197 640.256 674.429 316.08 1248.23C200.103 1453.51 94.8101 1594.59 0 1688.02V1687.48Z" fill="#F6DC0E"/>
<path opacity="0.7" d="M13.4189 1706C102.859 1610.68 201.227 1473.18 308.688 1280.65C635.982 694.266 827.742 629.392 989.907 758.855C1069.36 822.29 1141.7 932.38 1219.4 1050.64C1314.25 1195 1417.1 1351.53 1550.62 1450.13C1938.65 1736.66 1971.61 575.813 1968.45 78.0566H1968.79C1971.95 575.97 1938.93 1737.36 1550.43 1450.48C1416.85 1351.85 1313.99 1195.29 1219.12 1050.89C1141.44 932.666 1069.13 822.598 989.71 759.196C827.718 629.873 636.118 694.77 308.974 1280.88C201.616 1473.23 103.322 1610.66 13.934 1705.99H13.4189V1706Z" fill="#F6DC0E"/>
<path opacity="0.7" d="M40.7656 1706C120.926 1611.34 207.819 1483.27 301.585 1313.31C631.922 714.521 824.206 644.094 986.189 771.911C1066.18 835.028 1138.75 946.478 1216.92 1066.52C1312.06 1212.63 1415.49 1371.46 1550.62 1471.24C1936.74 1756.36 1959.89 588.327 1952.25 78.0547H1952.6C1960.23 588.489 1937.03 1757.06 1550.44 1471.6C1415.26 1371.78 1311.81 1212.92 1216.64 1066.77C1138.49 946.764 1065.93 835.336 985.997 772.264C824.187 644.587 632.058 715.03 301.875 1313.54C208.198 1483.35 121.371 1611.35 41.2572 1706H40.7656V1706Z" fill="#F6DC0E"/>
<path opacity="0.7" d="M64.4619 1706C136.012 1614.14 212.656 1495.96 294.478 1345.96C627.924 734.694 820.766 658.827 982.598 785.093C1063.06 847.874 1135.84 960.629 1214.43 1082.38C1309.87 1230.25 1413.88 1391.4 1550.61 1492.36C1934.89 1776.11 1948.38 600.686 1936.2 78.0547H1936.55C1948.72 600.854 1935.18 1776.82 1550.43 1492.71C1413.65 1391.71 1309.62 1230.53 1214.16 1082.64C1135.59 960.914 1062.82 848.182 982.411 785.44C820.752 659.308 628.065 735.198 294.769 1346.19C213.021 1496.05 136.438 1614.17 64.9301 1706H64.4619V1706Z" fill="#F6DC0E"/>
<path opacity="0.5" d="M85.2586 1706C148.779 1618.58 216.125 1510.66 287.375 1378.62C623.995 754.791 817.417 673.567 979.138 798.384C1060.04 860.823 1132.98 974.82 1211.95 1098.24C1307.69 1247.86 1412.28 1411.33 1550.62 1513.48C1933.11 1795.92 1937.08 612.891 1920.27 78.0566H1920.62C1937.41 613.064 1933.4 1796.62 1550.43 1513.83C1412.04 1411.64 1307.42 1248.14 1211.67 1098.48C1132.72 975.1 1059.79 861.125 978.946 798.731C817.403 674.054 624.131 755.295 287.665 1378.84C216.48 1510.76 149.186 1618.61 85.7127 1706H85.2539H85.2586Z" fill="#F6DC0E"/>
<path opacity="0.4" d="M103.906 1706C159.828 1624.24 218.605 1526.75 280.267 1411.27C620.118 774.807 814.149 688.316 975.78 811.761C1057.07 873.848 1130.15 989.043 1209.46 1114.07C1305.49 1265.45 1410.66 1431.25 1550.61 1534.59C1931.46 1815.82 1925.95 624.813 1904.45 78.0508H1904.8C1926.29 624.986 1931.75 1816.52 1550.43 1534.94C1410.43 1431.56 1305.23 1265.73 1209.19 1114.32C1129.89 989.328 1056.83 874.161 975.593 812.114C814.139 688.808 620.263 775.311 280.562 1411.49C218.957 1526.86 160.235 1624.28 104.356 1706H103.911H103.906Z" fill="#F6DC0E"/>
</svg>
