<svg width="93" height="40" viewBox="0 0 93 40" fill="none" xmlns="http://www.w3.org/2000/svg">
<path d="M50.4742 29.9066C50.2694 30.6293 49.9804 31.1472 49.5468 31.5326C49.5347 31.5447 49.5107 31.5688 49.4986 31.5808C48.5953 32.3516 47.1139 32.4962 44.7171 32.4962H38.0205V31.5808V31.5326L38.0085 29.9066H29.8064V39.5421H45.5843C51.6907 39.5421 55.2798 38.6267 57.2912 35.7963C57.3032 35.7722 57.3153 35.7481 57.3394 35.7361C58.0982 34.6521 58.6281 33.279 58.9653 31.5688C58.9653 31.5567 58.9774 31.5447 58.9774 31.5206C59.0858 31.0147 59.1701 30.4727 59.2424 29.8946H50.4742V29.9066ZM58.9533 17.0192C58.9533 17.0072 58.9533 16.9951 58.9412 16.9831C58.592 15.2728 58.062 13.8998 57.3032 12.8158C57.2912 12.7917 57.2791 12.7796 57.2671 12.7555C55.2678 9.92513 51.6666 9.00977 45.5602 9.00977H29.7823V18.6452H37.9964L38.0085 17.0192V16.9831V16.0557H44.705C47.1018 16.0557 48.5833 16.2123 49.4866 16.9831C49.4986 16.9951 49.5227 17.0072 49.5347 17.0192C49.9683 17.3926 50.2574 17.9226 50.4621 18.6452H59.2062C59.146 18.0791 59.0617 17.5371 58.9533 17.0192Z" fill="white"/>
<path d="M84.2093 30.1237C84.125 30.6777 83.9925 31.1474 83.8118 31.5208C83.7998 31.5329 83.7998 31.557 83.7877 31.569C83.0049 33.1107 81.2464 33.3516 77.4645 33.3516C74.0681 33.3516 72.2976 33.0866 71.3943 31.569C71.3822 31.557 71.3702 31.5329 71.3702 31.5208C71.1173 31.0872 70.9366 30.5573 70.7921 29.8948H62.1443C62.2166 30.473 62.3009 31.0029 62.4093 31.5208C62.4093 31.5449 62.4214 31.557 62.4214 31.569C62.7706 33.2432 63.3006 34.6162 64.0473 35.7363C64.0594 35.7604 64.0714 35.7725 64.0955 35.7966C66.2875 38.9883 70.3585 40 77.4645 40C85.0765 40 89.1956 39.0003 91.231 35.7966C91.2431 35.7725 91.2551 35.7484 91.2672 35.7363C91.9657 34.6283 92.4114 33.2552 92.6643 31.569C92.6643 31.557 92.6643 31.5329 92.6763 31.5208C92.7486 31.0752 92.7968 30.6055 92.845 30.1237H84.2093ZM92.6884 17.0195C92.6884 17.0074 92.6884 16.9954 92.6763 16.9833C92.4234 15.2971 91.9778 13.9241 91.2913 12.816C91.2792 12.7919 91.2672 12.7799 91.2551 12.7558C89.2197 9.53996 85.1006 8.54028 77.4645 8.54028C70.3585 8.54028 66.2875 9.55201 64.0955 12.7558C64.0835 12.7799 64.0714 12.7919 64.0594 12.816C63.3126 13.9241 62.7827 15.2971 62.4334 16.9833C62.4334 16.9954 62.4214 17.0074 62.4214 17.0195C62.313 17.5374 62.2287 18.0673 62.1564 18.6455H70.8041C70.9366 17.983 71.1173 17.4531 71.3822 17.0195C71.3943 17.0074 71.3943 16.9954 71.4063 16.9833C72.3217 15.4658 74.0922 15.2008 77.4766 15.2008C81.2825 15.2008 83.029 15.4417 83.8118 16.9833C83.8118 16.9954 83.8239 17.0074 83.8359 17.0195C84.0286 17.4049 84.1491 17.8626 84.2334 18.4287H92.869C92.8088 17.9348 92.7606 17.4651 92.6884 17.0195Z" fill="white"/>
<path d="M60.255 0L61.1945 2.87859H64.2296L61.7726 4.67319L62.712 7.55178L60.255 5.76922L57.81 7.55178L58.7374 4.67319L56.2925 2.87859H59.3276L60.255 0Z" fill="#CF0001"/>
<path d="M47.2707 0L48.2101 2.87859H51.2452L48.7882 4.67319L49.7277 7.55178L47.2707 5.76922L44.8136 7.55178L45.7531 4.67319L43.2961 2.87859H46.3312L47.2707 0Z" fill="#CF0001"/>
<path d="M73.2501 0L74.1775 2.87859H77.2247L74.7677 4.67319L75.6951 7.55178L73.2501 5.76922L70.7931 7.55178L71.7325 4.67319L69.2755 2.87859H72.3106L73.2501 0Z" fill="#CF0001"/>
<path d="M58.9424 16.983C58.9424 16.9951 58.9545 17.0071 58.9545 17.0312H49.5359C49.5239 17.0191 49.4998 17.0071 49.4878 16.983C48.5845 16.2122 47.103 16.0556 44.7062 16.0556H38.0097V16.983V17.0312H29.7955V12.8157H57.3165C58.0753 13.8997 58.6052 15.2727 58.9424 16.983Z" fill="#CF0001"/>
<path d="M92.6892 17.019H83.8126C83.8006 17.0069 83.8006 16.9949 83.7885 16.9708C83.0177 15.4291 81.2593 15.1882 77.4533 15.1882C74.0568 15.1882 72.2863 15.4532 71.371 16.9708C71.3589 16.9828 71.3589 16.9949 71.3469 17.019H62.3981C62.3981 17.0069 62.4101 16.9949 62.4101 16.9708C62.7594 15.2846 63.2773 13.9115 64.0361 12.8035H91.28C91.9665 13.9115 92.4122 15.2846 92.6651 16.9708C92.6892 16.9949 92.6892 17.0069 92.6892 17.019Z" fill="#CF0001"/>
<path d="M49.548 31.5327H58.9545C58.9545 31.5448 58.9424 31.5688 58.9424 31.5809C58.5932 33.2791 58.0753 34.6522 57.3165 35.7482H29.7955V31.5327H38.0097V31.5809V32.5083H44.7062C47.103 32.5083 48.5845 32.3517 49.4878 31.5809C49.5119 31.5688 49.5359 31.5448 49.548 31.5327Z" fill="#CF0001"/>
<path d="M92.6895 31.5327C92.6895 31.5448 92.6895 31.5688 92.6775 31.5809C92.4125 33.2671 91.9669 34.6401 91.2803 35.7482H64.0605C63.3138 34.6401 62.7838 33.2671 62.4345 31.5809C62.4345 31.5688 62.4225 31.5568 62.4225 31.5327H71.3713C71.3834 31.5448 71.3834 31.5688 71.3954 31.5809C72.2987 33.0985 74.0813 33.3635 77.4657 33.3635C81.2475 33.3635 83.006 33.1226 83.7889 31.5809C83.8009 31.5688 83.8009 31.5448 83.813 31.5327H92.6895Z" fill="#CF0001"/>
<path d="M54.4163 28.6912H56.2831L52.152 19.8748H52.1158L48.0208 28.6912H49.8515C50.8632 26.5353 50.9957 26.2341 52.1399 23.741C53.2962 26.2582 53.3684 26.4269 54.4163 28.6912Z" fill="white"/>
<path d="M52.1525 26.0049L52.7788 27.3418L53.4051 28.6908H52.1525H50.8759L51.5262 27.3418L52.1525 26.0049Z" fill="white"/>
<path d="M37.0835 23.7522C37.2762 23.7522 37.8664 23.162 37.8664 22.2828C37.8664 21.1025 36.9149 19.9944 35.3732 19.9944H33.0607V25.8961H34.759V24.8844H36.132C36.951 24.8844 37.2762 25.3782 37.2762 25.872C37.2762 26.5344 36.686 26.9199 36.132 26.9199H35.8068V28.594H36.3006C38.0711 28.594 38.9865 27.2812 38.9865 26.0045C38.9865 24.5953 37.9025 23.7522 37.0835 23.7522ZM35.4816 23.3547H34.759V21.6565H35.5057C35.9032 21.6565 36.2645 22.0178 36.2645 22.5116C36.2765 22.9934 35.8791 23.3547 35.4816 23.3547Z" fill="white"/>
<path d="M34.7832 26.896H33.0609V28.5822H34.7832V26.896Z" fill="white"/>
<path d="M4.37204 28.6187C5.64872 28.6187 6.53999 28.0767 7.27468 27.342L6.32319 26.0051C5.74507 26.5471 5.08264 26.9566 4.31182 26.9566C3.03513 26.9566 1.69823 25.7762 1.69823 24.3068C1.69823 22.8374 2.97491 21.633 4.31182 21.633C5.04651 21.633 5.74507 21.9823 6.28706 22.5604L7.27468 21.2235C6.38341 20.3924 5.41988 19.9468 4.3359 19.9468C1.97525 19.9468 0 21.922 0 24.2827C0 26.6434 1.95116 28.6187 4.37204 28.6187Z" fill="white"/>
<path d="M4.31225 23.1626C4.9265 23.1626 5.43236 23.6564 5.43236 24.2827C5.43236 24.897 4.9265 25.4028 4.31225 25.4028C3.69799 25.4028 3.19214 24.909 3.19214 24.2827C3.19214 23.6685 3.69799 23.1626 4.31225 23.1626Z" fill="#CF0001"/>
<path d="M14.4169 21.6804V19.9822H9.23785V28.5577H10.9722C10.9722 27.4135 10.9722 26.2332 10.9722 25.089H13.923V23.3546H10.9722V21.6804H14.4169Z" fill="white"/>
<path d="M13.8863 26.8838H12.1639V28.582H13.8863V26.8838Z" fill="white"/>
<path d="M30.5444 21.6804V19.9822H25.3654V28.5577H27.0998C27.0998 27.4135 27.0998 26.2332 27.0998 25.089H30.0506V23.3546H27.0998V21.6804H30.5444Z" fill="white"/>
<path d="M30.0139 26.8838H28.2916V28.582H30.0139V26.8838Z" fill="white"/>
<path d="M70.8679 21.6804V19.9822H65.6889V28.5577H67.4233C67.4233 27.4135 67.4233 26.2332 67.4233 25.089H70.3741V23.3546H67.4233V21.6804H70.8679Z" fill="white"/>
<path d="M70.3262 26.8838H68.6039V28.582H70.3262V26.8838Z" fill="white"/>
<path d="M19.0289 19.9822H17.2945V28.5698H19.0289C19.0289 25.7153 19.0289 22.8608 19.0289 19.9822Z" fill="white"/>
<path d="M22.498 26.8594H20.7756V28.5697H22.498V26.8594Z" fill="white"/>
<path d="M63.1965 19.9822H57.2347V21.6925H59.3304V23.9207H61.0647V21.6925H63.1965V19.9822Z" fill="white"/>
<path d="M60.2214 28.5694L61.0404 27.0639L61.8594 25.5222H60.2214H58.5834L59.4024 27.0639L60.2214 28.5694Z" fill="white"/>
<path d="M44.9236 25.1612C45.839 24.836 46.5255 23.8845 46.5255 22.7644C46.5255 21.2227 45.2127 19.9822 43.5747 19.9822H40.7925V21.9815C42.298 24.2097 43.7674 26.3777 45.2488 28.5698H47.3806L44.9236 25.1612ZM43.647 23.8484H42.5268V21.6925H43.647C44.201 21.6925 44.7309 22.1863 44.7309 22.7765C44.7309 23.3907 44.201 23.8845 43.647 23.8484Z" fill="white"/>
<path d="M42.5146 26.8594H40.7922V28.5697H42.5146V26.8594Z" fill="white"/>
</svg>
